<?xml version="1.0" standalone="no"?>
<!DOCTYPE svg PUBLIC "-//W3C//DTD SVG 20010904//EN"
 "http://www.w3.org/TR/2001/REC-SVG-20010904/DTD/svg10.dtd">
<svg version="1.0" xmlns="http://www.w3.org/2000/svg"
 width="500.000000pt" height="500.000000pt" viewBox="0 0 500.000000 500.000000"
 preserveAspectRatio="xMidYMid meet">

<g transform="translate(0.000000,500.000000) scale(0.100000,-0.100000)"
fill="#000000" stroke="none">
<path d="M2437 3623 c-3 -5 -80 -204 -172 -443 -92 -239 -170 -438 -174 -443
-4 -4 -63 138 -131 315 -68 178 -126 327 -130 331 -4 5 -17 -7 -29 -27 -35
-56 -120 -126 -201 -165 -69 -33 -84 -36 -182 -39 l-106 -4 -6 -47 c-3 -25
-24 -251 -46 -501 -22 -250 -43 -476 -46 -502 l-6 -48 180 0 181 0 5 43 c3 23
20 227 37 452 17 226 34 418 37 428 5 12 56 -121 151 -395 79 -227 153 -437
163 -465 l19 -53 107 0 107 0 154 443 c85 243 158 453 163 466 5 13 11 22 13
19 2 -2 16 -148 30 -324 l26 -319 -60 -147 -59 -148 249 0 249 0 0 38 c0 20
-5 77 -10 126 -7 70 -6 96 5 122 l14 34 299 0 299 0 16 -41 16 -41 31 36 c47
53 126 88 199 88 32 0 69 -3 81 -7 14 -4 21 -3 19 3 -2 6 -114 283 -249 616
l-244 606 -170 -2 -170 -3 -109 -273 c-60 -150 -111 -272 -112 -270 -2 2 -13
116 -25 253 -11 138 -23 260 -26 273 -4 22 -5 22 -194 22 -104 0 -191 -3 -193
-7z m922 -711 c44 -117 81 -218 81 -223 0 -5 -74 -9 -176 -9 -164 0 -176 1
-170 18 101 268 171 440 177 435 3 -5 43 -104 88 -221z"/>
<path d="M3810 2254 c-63 -22 -90 -57 -90 -120 0 -28 8 -44 34 -70 29 -29 41
-34 80 -34 36 0 52 6 78 29 29 26 33 35 33 80 0 43 -4 55 -30 80 -30 29 -76
44 -105 35z"/>
<path d="M1530 1750 c0 -64 3 -80 15 -80 12 0 15 13 16 58 0 44 2 52 9 35 12
-31 26 -29 38 5 9 23 11 18 11 -35 1 -35 5 -63 11 -63 6 0 10 33 10 80 0 64
-3 80 -15 80 -8 0 -21 -15 -28 -32 l-14 -33 -7 33 c-5 22 -13 32 -27 32 -17 0
-19 -8 -19 -80z"/>
<path d="M1700 1820 c0 -5 9 -10 20 -10 18 0 20 -7 20 -56 0 -47 -3 -57 -20
-61 -37 -10 -20 -23 30 -23 28 0 50 5 50 10 0 6 -7 10 -15 10 -12 0 -15 13
-15 60 0 47 3 60 15 60 8 0 15 5 15 10 0 6 -22 10 -50 10 -27 0 -50 -4 -50
-10z"/>
<path d="M1870 1750 l0 -80 50 0 c38 0 50 4 50 15 0 10 -11 15 -35 15 l-35 0
0 65 c0 51 -3 65 -15 65 -12 0 -15 -16 -15 -80z"/>
<path d="M2040 1750 l0 -80 50 0 c38 0 50 4 50 15 0 10 -11 15 -35 15 l-35 0
0 65 c0 51 -3 65 -15 65 -12 0 -15 -16 -15 -80z"/>
<path d="M2200 1750 l0 -80 50 0 c28 0 50 5 50 10 0 6 -16 10 -35 10 -31 0
-35 3 -35 25 0 21 5 25 30 25 20 0 30 5 30 15 0 10 -10 15 -30 15 -23 0 -30 4
-30 20 0 16 7 20 35 20 19 0 35 5 35 10 0 6 -22 10 -50 10 l-50 0 0 -80z"/>
<path d="M2370 1750 c0 -47 4 -80 10 -80 6 0 10 14 10 30 0 19 5 30 14 30 7 0
19 -13 26 -30 7 -16 19 -30 27 -30 11 0 13 5 8 18 -15 34 -17 60 -6 66 15 9
14 49 -1 64 -7 7 -29 12 -50 12 l-38 0 0 -80z m68 32 c3 -18 -1 -22 -22 -22
-19 0 -26 5 -26 18 0 39 43 43 48 4z"/>
<path d="M2720 1788 c-6 -24 -15 -56 -20 -72 -13 -39 -13 -46 5 -46 8 0 15 9
15 20 0 15 7 20 26 20 17 0 28 -6 31 -20 3 -11 12 -20 19 -20 17 0 17 7 4 46
-5 16 -14 48 -20 72 -8 31 -16 42 -30 42 -14 0 -22 -11 -30 -42z m40 -12 c0
-8 3 -21 6 -30 4 -12 0 -16 -16 -16 -16 0 -20 4 -16 16 3 9 6 22 6 30 0 8 5
14 10 14 6 0 10 -6 10 -14z"/>
<path d="M2860 1750 c0 -64 3 -80 15 -80 10 0 15 10 15 30 0 19 5 30 14 30 7
0 19 -13 26 -30 7 -16 19 -30 26 -30 18 0 17 4 -1 39 -13 26 -13 30 0 41 18
15 20 51 3 68 -7 7 -31 12 -55 12 l-43 0 0 -80z m78 33 c3 -19 -1 -23 -22 -23
-21 0 -26 5 -26 26 0 21 4 25 23 22 14 -2 23 -11 25 -25z"/>
<path d="M3030 1821 c0 -5 9 -11 20 -14 17 -4 20 -14 20 -57 0 -43 -3 -53 -20
-57 -37 -10 -20 -23 30 -23 50 0 67 13 30 23 -17 4 -20 14 -20 57 0 43 3 53
20 57 37 10 20 23 -30 23 -27 0 -50 -4 -50 -9z"/>
<path d="M3225 1818 c-12 -40 -35 -128 -35 -137 0 -6 7 -11 15 -11 8 0 15 9
15 20 0 15 7 20 24 20 16 0 27 -7 31 -20 3 -11 13 -20 22 -20 10 0 13 6 9 17
-4 9 -14 45 -22 80 -13 50 -20 63 -36 63 -10 0 -20 -6 -23 -12z m35 -65 c0
-15 -6 -23 -16 -23 -12 0 -15 6 -10 23 3 12 6 29 6 37 1 25 20 -11 20 -37z"/>
<path d="M3372 1818 c-27 -27 -4 -67 46 -82 23 -8 30 -30 11 -42 -6 -3 -22 -1
-35 7 -28 15 -42 6 -24 -16 16 -20 64 -19 84 1 28 28 16 59 -30 79 -19 8 -34
19 -34 25 0 17 29 23 45 10 18 -15 30 -7 22 15 -8 18 -67 21 -85 3z"/>
<path d="M1960 1541 c0 -36 3 -41 23 -40 16 1 18 2 5 6 -12 3 -18 14 -18 34 0
36 27 40 33 4 4 -23 4 -23 3 2 -1 21 -7 29 -23 31 -21 3 -23 -1 -23 -37z"/>
<path d="M2090 1540 c0 -37 2 -40 28 -39 23 2 24 2 5 6 -27 5 -31 30 -5 36 16
4 16 5 0 6 -26 2 -22 19 5 24 19 4 18 4 -5 6 -26 1 -28 -2 -28 -39z"/>
<path d="M2490 1571 c0 -6 5 -13 10 -16 6 -3 10 1 10 9 0 9 -4 16 -10 16 -5 0
-10 -4 -10 -9z"/>
<path d="M2610 1576 c0 -2 9 -6 20 -9 11 -3 20 -1 20 4 0 5 -9 9 -20 9 -11 0
-20 -2 -20 -4z"/>
<path d="M2745 1540 c0 -34 3 -40 20 -39 11 0 14 3 8 6 -7 2 -13 17 -13 33 0
16 6 31 13 33 6 3 3 6 -8 6 -17 1 -20 -5 -20 -39z"/>
<path d="M2887 1559 c4 -13 8 -18 11 -10 2 7 -1 18 -6 23 -8 8 -9 4 -5 -13z"/>
<path d="M2997 1573 c-3 -5 5 -8 18 -8 13 0 21 3 18 8 -2 4 -10 7 -18 7 -8 0
-16 -3 -18 -7z"/>
<path d="M2221 1554 c0 -11 3 -14 6 -6 3 7 2 16 -1 19 -3 4 -6 -2 -5 -13z"/>
<path d="M2251 1544 c0 -11 3 -14 6 -6 3 7 2 16 -1 19 -3 4 -6 -2 -5 -13z"/>
<path d="M2871 1548 c0 -9 -3 -22 -4 -30 -2 -7 -2 -10 0 -5 7 11 31 8 36 -5 3
-8 6 -6 6 5 1 9 -5 17 -13 17 -8 0 -17 8 -19 18 -4 15 -5 15 -6 0z"/>
<path d="M2480 1539 c0 -9 9 -19 20 -22 13 -3 20 0 20 10 0 8 -5 11 -11 7 -6
-3 -15 0 -20 7 -7 11 -9 11 -9 -2z"/>
<path d="M2610 1543 c0 -2 8 -11 19 -22 18 -18 19 -18 17 3 0 14 -8 22 -18 22
-10 0 -18 -2 -18 -3z"/>
<path d="M3013 1539 c23 -14 22 -33 -3 -26 -11 3 -18 1 -14 -4 9 -15 34 -10
41 7 6 16 -12 34 -32 34 -5 -1 -2 -5 8 -11z"/>
<path d="M2230 1516 c0 -9 5 -16 10 -16 6 0 10 4 10 9 0 6 -4 13 -10 16 -5 3
-10 -1 -10 -9z"/>
</g>
</svg>
