<?xml version="1.0" encoding="UTF-8" standalone="no"?>
<!-- Created with Inkscape (http://www.inkscape.org/) -->

<svg
   width="366.83032"
   height="266.29868"
   viewBox="0 0 366.83032 266.29868"
   version="1.1"
   id="svg1"
   inkscape:version="1.3 (0e150ed6c4, 2023-07-21)"
   sodipodi:docname="dibujo.svg"
   xmlns:inkscape="http://www.inkscape.org/namespaces/inkscape"
   xmlns:sodipodi="http://sodipodi.sourceforge.net/DTD/sodipodi-0.dtd"
   xmlns="http://www.w3.org/2000/svg"
   xmlns:svg="http://www.w3.org/2000/svg">
  <sodipodi:namedview
     id="namedview1"
     pagecolor="#ffffff"
     bordercolor="#000000"
     borderopacity="0.25"
     inkscape:showpageshadow="2"
     inkscape:pageopacity="0.0"
     inkscape:pagecheckerboard="0"
     inkscape:deskcolor="#d1d1d1"
     inkscape:document-units="px"
     showguides="true"
     inkscape:zoom="1.5878906"
     inkscape:cx="255.68512"
     inkscape:cy="256"
     inkscape:window-width="1920"
     inkscape:window-height="1009"
     inkscape:window-x="-8"
     inkscape:window-y="-8"
     inkscape:window-maximized="1"
     inkscape:current-layer="layer1"
     inkscape:export-bgcolor="#ffffffff">
    <sodipodi:guide
       position="306.00861,618.29766"
       orientation="0,-1"
       id="guide1"
       inkscape:locked="false" />
    <sodipodi:guide
       position="-141.12546,254.92251"
       orientation="1,0"
       id="guide2"
       inkscape:locked="false" />
  </sodipodi:namedview>
  <defs
     id="defs1" />
  <g
     inkscape:label="Capa 1"
     inkscape:groupmode="layer"
     id="layer1"
     transform="translate(-75,-100)">
    <rect
       style="fill:#999999;fill-opacity:1;stroke:#000000;stroke-width:1;stroke-dasharray:none;stroke-opacity:1"
       id="rect1-3-7"
       width="34.616493"
       height="146.51616"
       x="-366.09326"
       y="185.75925"
       ry="25.149975"
       rx="0"
       transform="matrix(-0.00293371,-0.9999957,0.99999903,-0.00138946,0,0)" />
    <rect
       style="fill:#999999;fill-opacity:1;stroke:#000000;stroke-width:1;stroke-dasharray:none;stroke-opacity:1"
       id="rect1-3"
       width="49.663872"
       height="149.66386"
       x="234.04926"
       y="200.16809"
       ry="0"
       rx="0" />
    <rect
       style="fill:#999999;fill-opacity:1;stroke:#000000;stroke-width:0.951215;stroke-dasharray:none;stroke-opacity:1"
       id="rect1"
       width="299.04877"
       height="199.04878"
       x="109.35681"
       y="100.47561"
       ry="0"
       rx="0" />
    <rect
       style="fill:#f18df1;fill-opacity:1;stroke:#000000;stroke-width:2.055;stroke-dasharray:none;stroke-opacity:1"
       id="rect3"
       width="270"
       height="170"
       x="123.1373"
       y="114.23618"
       ry="34.637146"
       rx="32.747849" />
    <rect
       style="fill:#000000;fill-opacity:1;stroke:none;stroke-width:0.903855;stroke-dasharray:none;stroke-opacity:1"
       id="rect4"
       width="29.096146"
       height="59.096146"
       x="199.33315"
       y="140.45193"
       rx="10.580417"
       ry="18.803318" />
    <rect
       style="fill:#000000;fill-opacity:1;stroke:none;stroke-width:0.903855;stroke-dasharray:none;stroke-opacity:1"
       id="rect4-6"
       width="29.096146"
       height="59.096146"
       x="289.33313"
       y="140.45193"
       rx="10.580417"
       ry="18.803318" />
    <path
       style="fill:#050505;fill-opacity:1;stroke:none;stroke-width:0.955;stroke-dasharray:none;stroke-opacity:1"
       d="m 212.29571,226.33458 c 4.38754,-15.36188 31.91852,3.53662 47.86224,2.51907 27.17329,-1.73424 36.4265,-18.01418 41.56458,-5.03814 6.13667,15.49792 -17.37371,28.51966 -40.30505,29.59902 -18.67654,0.87909 -54.25659,-9.10165 -49.12177,-27.07995 z"
       id="path4"
       sodipodi:nodetypes="asasa" />
    <rect
       style="fill:#000000;stroke:#000000;stroke-width:0.674548;stroke-dasharray:none;stroke-opacity:1"
       id="rect10-6"
       width="16.691994"
       height="74.325447"
       x="-108.04851"
       y="-234.76534"
       inkscape:label="rect10-6"
       transform="rotate(179.94402)"
       ry="8.3459969" />
    <path
       style="fill:#999999;fill-opacity:1;stroke:#000000;stroke-width:0.429;stroke-dasharray:none;stroke-opacity:1"
       id="path12"
       sodipodi:type="arc"
       sodipodi:cx="197.42137"
       sodipodi:cy="-97.970711"
       sodipodi:rx="36.789619"
       sodipodi:ry="22.951031"
       sodipodi:start="0"
       sodipodi:end="3.1415927"
       sodipodi:arc-type="slice"
       d="m 234.21099,-97.970711 a 36.789619,22.951031 0 0 1 -18.39481,19.876176 36.789619,22.951031 0 0 1 -36.78962,0 36.789619,22.951031 0 0 1 -18.39481,-19.876176 h 36.78962 z"
       transform="matrix(9.9641281e-4,0.9999995,-0.99999624,0.0027408,0,0)" />
    <rect
       style="fill:#000000;stroke:#000000;stroke-width:0.674548;stroke-dasharray:none;stroke-opacity:1"
       id="rect10-6-6"
       width="16.691994"
       height="74.325447"
       x="404.2056"
       y="169.13585"
       inkscape:label="rect10-6"
       transform="rotate(-1.2402876)"
       ry="8.3459969" />
    <path
       style="fill:#999999;fill-opacity:1;stroke:#000000;stroke-width:0.429;stroke-dasharray:none;stroke-opacity:1"
       id="path12-9"
       sodipodi:type="arc"
       sodipodi:cx="-207.38336"
       sodipodi:cy="414.27628"
       sodipodi:rx="36.789619"
       sodipodi:ry="22.951031"
       sodipodi:start="0"
       sodipodi:end="3.1415927"
       sodipodi:arc-type="slice"
       d="m -170.59374,414.27628 a 36.789619,22.951031 0 0 1 -18.39481,19.87617 36.789619,22.951031 0 0 1 -36.78962,0 36.789619,22.951031 0 0 1 -18.39481,-19.87617 h 36.78962 z"
       transform="matrix(-0.02166479,-0.99976529,0.99972598,-0.02340873,0,0)" />
  </g>
</svg>
